<svg xmlns="http://www.w3.org/2000/svg" viewBox="0 0 960 560" role="img" aria-labelledby="t d"><title id="t">Corsi e formazione</title><desc id="d">Biblioteca stilizzata con libro aperto, documento, bussola e schermo digitale in tonalità verde scuro e oro.</desc><defs><linearGradient id="bg" x2="1" y2="1"><stop stop-color="#071d17"/><stop offset="1" stop-color="#18382e"/></linearGradient><linearGradient id="gold" x2="0" y2="1"><stop stop-color="#f0d18c"/><stop offset="1" stop-color="#bd9550"/></linearGradient></defs><rect width="960" height="560" rx="20" fill="url(#bg)"/><g stroke="#d7b56e" stroke-width="2" fill="none" opacity=".28"><path d="M55 66H905M55 494H905M86 66V494M874 66V494"/><path d="M130 128h700M130 440h700" stroke-dasharray="4 12"/></g><g opacity=".24" stroke="#d6b676" fill="none"><circle cx="480" cy="278" r="196"/><circle cx="480" cy="278" r="163"/><path d="M480 76V480M280 278H680"/></g><g fill="#102c24" stroke="url(#gold)" stroke-width="5" stroke-linejoin="round"><path d="M480 355q-100-62-220-30V171q120-34 220 32z"/><path d="M480 355q100-62 220-30V171q-120-34-220 32z"/></g><g stroke="#d8b875" stroke-width="3" fill="none" opacity=".75"><path d="M292 210q95-19 158 22M292 246q95-19 158 22M292 282q95-19 158 22M510 232q64-41 158-22M510 268q64-41 158-22M510 304q64-41 158-22"/></g><g fill="#f0d18c"><circle cx="480" cy="151" r="38" fill="#102c24" stroke="#f0d18c" stroke-width="4"/><path d="m480 125 11 27-11 25-11-25z"/></g><g fill="none" stroke="#dfc080" stroke-width="4"><rect x="126" y="212" width="98" height="130" rx="10"/><path d="M148 238h55M148 260h55M148 282h37"/><rect x="737" y="212" width="99" height="80" rx="7"/><path d="M766 309h42M787 292v17"/></g><g fill="#d9b773" font-family="Georgia,serif" font-size="23" text-anchor="middle"><text x="480" y="419">CONOSCENZA · RICERCA · FORMAZIONE</text></g></svg>