<svg xmlns="http://www.w3.org/2000/svg" viewBox="0 0 900 480"><defs><linearGradient id="g" x2="1" y2="1"><stop stop-color="#21372e"/><stop offset="1" stop-color="#061913"/></linearGradient></defs><rect width="900" height="480" fill="url(#g)"/><g stroke="#c7a565" opacity=".22" fill="none"><path d="M50 70h800M50 410h800"/><circle cx="650" cy="220" r="165"/></g><g transform="translate(120 95)"><path d="M0 80q155-66 310 20v260q-155-86-310-20z" fill="#e8d8b6" stroke="#c9a56b" stroke-width="6"/><path d="M310 100q155-86 310-20v260q-155-66-310 20z" fill="#d4bd8d" stroke="#c9a56b" stroke-width="6"/><path d="M310 100v260" stroke="#8d7246" stroke-width="8"/><g stroke="#9c8155" stroke-width="6" stroke-linecap="round"><path d="M48 137q106-28 213 21M48 180q106-28 213 21M48 223q106-28 213 21M360 156q106-48 213-21M360 201q106-48 213-21M360 246q106-48 213-21"/></g></g><g transform="translate(585 22) rotate(30)"><path d="M25 0h28v290l-14 42-14-42z" fill="#e0b86e" stroke="#88693e" stroke-width="5"/><path d="M25 290h28l-14 42z" fill="#2e2519"/></g></svg>